HIERARCHY
ROOT hip
{
  OFFSET 84.0756 64.8035 128.71
  CHANNELS 6 Xposition Yposition Zposition Zrotation Xrotation Yrotation
  JOINT abdomen
  {
    OFFSET 0 20.6881 -0.73152
    CHANNELS 3 Zrotation Xrotation Yrotation
    JOINT chest
    {
      OFFSET 0 11.7043 -0.48768
      CHANNELS 3 Zrotation Xrotation Yrotation
      JOINT neck
      {
        OFFSET 0 22.1894 -2.19456
        CHANNELS 3 Zrotation Xrotation Yrotation
        JOINT head
        {
          OFFSET -0.24384 7.07133 1.2192
          CHANNELS 3 Zrotation Xrotation Yrotation
          JOINT leftEye
          {
            OFFSET 4.14528 8.04674 8.04672
            CHANNELS 3 Zrotation Xrotation Yrotation
            End Site
            {
              OFFSET 1 0 0
            }
          }
          JOINT rightEye
          {
            OFFSET -3.6576 8.04674 8.04672
            CHANNELS 3 Zrotation Xrotation Yrotation
            End Site
            {
              OFFSET 1 0 0
            }
          }
        }
      }
      JOINT rCollar
      {
        OFFSET -2.68224 19.2634 -4.8768
        CHANNELS 3 Zrotation Xrotation Yrotation
        JOINT rShldr
        {
          OFFSET -8.77824 -1.95073 1.46304
          CHANNELS 3 Zrotation Xrotation Yrotation
          JOINT rForeArm
          {
            OFFSET -28.1742 -1.7115 0.48768
            CHANNELS 3 Zrotation Xrotation Yrotation
            JOINT rHand
            {
              OFFSET -22.5879 0.773209 7.07136
              CHANNELS 3 Zrotation Xrotation Yrotation
              JOINT rThumb1
              {
                OFFSET -1.2192 -0.487915 3.41376
                CHANNELS 3 Zrotation Xrotation Yrotation
                JOINT rThumb2
                {
                  OFFSET -3.37035 -0.52449 3.41376
                  CHANNELS 3 Zrotation Xrotation Yrotation
                  End Site
                  {
                    OFFSET -1.78271 -1.18214 1.43049
                  }
                }
              }
              JOINT rIndex1
              {
                OFFSET -7.75947 0.938293 5.60832
                CHANNELS 3 Zrotation Xrotation Yrotation
                JOINT rIndex2
                {
                  OFFSET -2.54057 -0.884171 1.56538
                  CHANNELS 3 Zrotation Xrotation Yrotation
                  End Site
                  {
                    OFFSET -1.62519 -0.234802 1.16502
                  }
                }
              }
              JOINT rMid1
              {
                OFFSET -8.24714 1.18213 3.41376
                CHANNELS 3 Zrotation Xrotation Yrotation
                JOINT rMid2
                {
                  OFFSET -3.10165 -0.590103 1.0647
                  CHANNELS 3 Zrotation Xrotation Yrotation
                  End Site
                  {
                    OFFSET -2.48547 -0.328903 0.83742
                  }
                }
              }
              JOINT rRing1
              {
                OFFSET -8.82822 0.546677 1.51678
                CHANNELS 3 Zrotation Xrotation Yrotation
                JOINT rRing2
                {
                  OFFSET -2.60934 -0.819778 -0.0198488
                  CHANNELS 3 Zrotation Xrotation Yrotation
                  End Site
                  {
                    OFFSET -2.33842 -0.294052 0.168128
                  }
                }
              }
              JOINT rPinky1
              {
                OFFSET -8.27202 -0.0477905 -0.4584
                CHANNELS 3 Zrotation Xrotation Yrotation
                JOINT rPinky2
                {
                  OFFSET -1.82734 -0.647385 -0.700984
                  CHANNELS 3 Zrotation Xrotation Yrotation
                  End Site
                  {
                    OFFSET -1.69225 -0.51767 -0.607171
                  }
                }
              }
            }
          }
        }
      }
      JOINT lCollar
      {
        OFFSET 2.68224 19.2634 -4.8768
        CHANNELS 3 Zrotation Xrotation Yrotation
        JOINT lShldr
        {
          OFFSET 8.77824 -1.95073 1.46304
          CHANNELS 3 Zrotation Xrotation Yrotation
          JOINT lForeArm
          {
            OFFSET 28.1742 -1.7115 0.48768
            CHANNELS 3 Zrotation Xrotation Yrotation
            JOINT lHand
            {
              OFFSET 22.5879 0.773209 7.07136
              CHANNELS 3 Zrotation Xrotation Yrotation
              JOINT lThumb1
              {
                OFFSET 1.2192 -0.487915 3.41376
                CHANNELS 3 Zrotation Xrotation Yrotation
                JOINT lThumb2
                {
                  OFFSET 3.37035 -0.52449 3.41376
                  CHANNELS 3 Zrotation Xrotation Yrotation
                  End Site
                  {
                    OFFSET 1.78271 -1.18214 1.43049
                  }
                }
              }
              JOINT lIndex1
              {
                OFFSET 7.75947 0.938293 5.60832
                CHANNELS 3 Zrotation Xrotation Yrotation
                JOINT lIndex2
                {
                  OFFSET 2.54057 -0.884171 1.56538
                  CHANNELS 3 Zrotation Xrotation Yrotation
                  End Site
                  {
                    OFFSET 1.62519 -0.234802 1.16502
                  }
                }
              }
              JOINT lMid1
              {
                OFFSET 8.24714 1.18213 3.41376
                CHANNELS 3 Zrotation Xrotation Yrotation
                JOINT lMid2
                {
                  OFFSET 3.10165 -0.590103 1.0647
                  CHANNELS 3 Zrotation Xrotation Yrotation
                  End Site
                  {
                    OFFSET 2.48547 -0.328903 0.83742
                  }
                }
              }
              JOINT lRing1
              {
                OFFSET 8.82822 0.546677 1.51678
                CHANNELS 3 Zrotation Xrotation Yrotation
                JOINT lRing2
                {
                  OFFSET 2.60934 -0.819778 -0.0198488
                  CHANNELS 3 Zrotation Xrotation Yrotation
                  End Site
                  {
                    OFFSET 2.33842 -0.294052 0.168128
                  }
                }
              }
              JOINT lPinky1
              {
                OFFSET 8.27202 -0.0477905 -0.4584
                CHANNELS 3 Zrotation Xrotation Yrotation
                JOINT lPinky2
                {
                  OFFSET 1.82734 -0.647385 -0.700984
                  CHANNELS 3 Zrotation Xrotation Yrotation
                  End Site
                  {
                    OFFSET 1.69225 -0.51767 -0.607171
                  }
                }
              }
            }
          }
        }
      }
    }
  }
  JOINT rButtock
  {
    OFFSET -8.77824 4.35084 1.2192
    CHANNELS 3 Zrotation Xrotation Yrotation
    JOINT rThigh
    {
      OFFSET 0 -1.70687 -2.19456
      CHANNELS 3 Zrotation Xrotation Yrotation
      JOINT rShin
      {
        OFFSET 0 -36.8199 0.73152
        CHANNELS 3 Zrotation Xrotation Yrotation
        JOINT rFoot
        {
          OFFSET 0.73152 -45.1104 -5.12064
          CHANNELS 3 Zrotation Xrotation Yrotation
          End Site
          {
            OFFSET -1.1221 -3.69964 12.103
          }
        }
      }
    }
  }
  JOINT lButtock
  {
    OFFSET 8.77824 4.35084 1.2192
    CHANNELS 3 Zrotation Xrotation Yrotation
    JOINT lThigh
    {
      OFFSET 0 -1.70687 -2.19456
      CHANNELS 3 Zrotation Xrotation Yrotation
      JOINT lShin
      {
        OFFSET 0 -36.8199 0.73152
        CHANNELS 3 Zrotation Xrotation Yrotation
        JOINT lFoot
        {
          OFFSET -0.73152 -45.1104 -5.12064
          CHANNELS 3 Zrotation Xrotation Yrotation
          End Site
          {
            OFFSET 1.1221 -3.69964 12.103
          }
        }
      }
    }
  }
}
MOTION
Frames:	4
Frame Time:	0.00833333
74.6607 32.8468 -78.5486 0.558774 -0.000782617 -0.00981682 -0.734992 -0.00369253 -0.0206945 -0.202644 -0.00499329 -0.0351106 6.09128e-015 1.59028e-015 3.72721e-017 1.83161e-014 9.54166e-015 5.74612e-017 -0 0 0 -0 0 0 3.12971e-015 1.33947e-017 1.49089e-016 6.55781e-014 6.70898e-016 1.39149e-015 1.09267e-012 -3.13682e-013 -3.18055e-015 1.25028e-011 3.92898e-013 6.36111e-014 2.94899e-011 1.65885e-013 1.33583e-013 5.09215e-011 2.83069e-013 2.39337e-013 2.94929e-011 1.64196e-013 1.39944e-013 7.73091 5.47488 0.417314 2.94891e-011 1.65488e-013 1.43125e-013 2.90554 0.965183 0.102902 2.9488e-011 1.65786e-013 1.39149e-013 10.2786 0.731801 0.0259123 2.94824e-011 1.67774e-013 1.52667e-013 2.22167 -0.733487 -0.20892 2.83403e-015 1.28123e-017 -9.93923e-017 6.2868e-014 2.67117e-016 -5.96354e-016 1.09307e-012 3.35549e-013 -1.27222e-014 1.25008e-011 -2.78174e-013 9.22361e-014 2.94928e-011 1.25235e-013 1.36764e-013 5.09402e-011 2.13097e-013 2.43312e-013 2.94905e-011 1.23246e-013 1.46306e-013 -7.73091 5.47488 -0.417314 2.94927e-011 1.24936e-013 1.39944e-013 -2.90554 0.965183 -0.102902 2.94869e-011 1.25234e-013 1.4233e-013 -10.2786 0.731801 -0.0259123 2.95052e-011 1.2921e-013 1.36764e-013 -2.22167 -0.733487 0.20892 -2.03217e-016 0 -3.88251e-019 -0.0349267 -2.13135 -0.0183559 -0.00889582 -1.69195 -0.0750307 -0.521805 3.82298 0.138151 2.03217e-016 0 3.88251e-019 -1.08444 -4.91176 0.0910664 0.00129841 3.3443 -0.00259262 0.532303 1.56727 -0.0929842 
83.1986 33.343 -83.7956 2.62653 0.0798225 -5.34175 -2.16566 3.27621 -2.19668 0.977174 -1.67019 -0.729146 -1.30281 -1.5421 1.47953 -0.0544077 1.44544 3.35502 -0 0 0 -0 0 0 1.2253e-013 1.49677e-013 8.71648e-014 1.08603 -4.91866 1.56613 2.93097 14.321 -42.9165 0.0954717 6.87729 0.941771 -7.95687e-010 -8.90179e-010 -1.15354e-009 -1.39334e-009 -1.49692e-009 -1.97599e-009 -7.95684e-010 -8.9018e-010 -1.15354e-009 7.73091 5.47488 0.417314 -7.95688e-010 -8.9018e-010 -1.15354e-009 2.90554 0.965183 0.102902 -7.95687e-010 -8.9018e-010 -1.15354e-009 10.2786 0.731801 0.0259123 -7.95696e-010 -8.90178e-010 -1.15353e-009 2.22167 -0.733487 -0.20892 1.22289e-013 1.49674e-013 8.69434e-014 -9.64512 -0.823231 -6.60235 17.6429 -15.1668 -15.0398 -0.000236155 -0.541823 0.0761402 -1.86165e-010 5.86553e-010 -2.91708e-010 -3.20719e-010 1.00875e-009 -5.03421e-010 -1.86167e-010 5.86552e-010 -2.91701e-010 -7.73091 5.47488 -0.417314 -1.86167e-010 5.86559e-010 -2.91709e-010 -2.90554 0.965183 -0.102902 -1.8617e-010 5.86553e-010 -2.91704e-010 -10.2786 0.731801 -0.0259123 -1.86154e-010 5.86558e-010 -2.9171e-010 -2.22167 -0.733487 0.20892 -2.03217e-016 0 -3.88251e-019 0.477077 -20.9557 -2.62437 1.0139 28.8022 -0.105492 -1.20539 -4.13177 -3.31762 2.03217e-016 0 3.88251e-019 1.18259 -1.17054 -2.90246 -0.290304 25.3046 -0.300977 3.91596 -0.14582 -10.279 
83.0297 33.509 -83.5091 4.78895 0.15549 -10.9789 -3.36405 6.72905 -4.51665 2.16524 -3.43294 -1.46163 -2.59132 -3.16584 3.04212 -0.288853 2.9897 6.89732 -0 0 0 -0 0 0 2.53797e-013 3.14833e-013 1.80788e-013 2.50796 -10.1241 3.25105 18.7988 3.24586 -86.062 -0.0562514 14.0892 1.9764 -1.69323e-009 -1.85231e-009 -2.4034e-009 -2.96408e-009 -3.1148e-009 -4.11693e-009 -1.69322e-009 -1.85231e-009 -2.4034e-009 7.73091 5.47488 0.417314 -1.69323e-009 -1.85231e-009 -2.4034e-009 2.90554 0.965183 0.102902 -1.69323e-009 -1.85231e-009 -2.4034e-009 10.2786 0.731801 0.0259123 -1.69324e-009 -1.85231e-009 -2.40339e-009 2.22167 -0.733487 -0.20892 2.53611e-013 3.14829e-013 1.80596e-013 -20.0205 -1.72387 -13.6234 27.1226 -27.5544 -34.138 0.00135271 -1.16316 0.163481 -4.19578e-010 1.21274e-009 -6.02855e-010 -7.22968e-010 2.08562e-009 -1.0404e-009 -4.19581e-010 1.21274e-009 -6.02851e-010 -7.73091 5.47488 -0.417314 -4.19583e-010 1.21275e-009 -6.02861e-010 -2.90554 0.965183 -0.102902 -4.19582e-010 1.21274e-009 -6.02852e-010 -10.2786 0.731801 -0.0259123 -4.19568e-010 1.21275e-009 -6.02857e-010 -2.22167 -0.733487 0.20892 -2.03217e-016 0 -3.88251e-019 -1.33304 -40.7421 -6.61982 2.17918 61.0515 -0.224708 -2.97576 -12.4441 -7.09467 2.03217e-016 0 3.88251e-019 4.05048 2.77417 -6.09889 -0.233412 48.5319 -0.840988 6.86025 -1.8691 -21.1191 
82.6807 33.7528 -83.2585 6.80639 0.232693 -16.0057 -4.27205 9.77859 -6.63469 3.21542 -4.99758 -2.12437 -3.66909 -4.61394 4.45145 -0.669358 4.27683 10.0902 -0 0 0 -0 0 0 3.6133e-013 4.49004e-013 2.61196e-013 4.08702 -14.7111 4.84012 22.6097 -28.0705 -109.739 -0.43096 20.6088 2.99693 -2.44604e-009 -2.67087e-009 -3.4609e-009 -4.28185e-009 -4.49133e-009 -5.92844e-009 -2.44604e-009 -2.67087e-009 -3.4609e-009 7.73091 5.47488 0.417314 -2.44604e-009 -2.67087e-009 -3.46091e-009 2.90554 0.965183 0.102902 -2.44604e-009 -2.67087e-009 -3.4609e-009 10.2786 0.731801 0.0259123 -2.44605e-009 -2.67087e-009 -3.4609e-009 2.22167 -0.733487 -0.20892 3.61198e-013 4.48998e-013 2.61029e-013 -29.4923 -2.33904 -19.8222 28.5176 -32.0531 -54.3266 0.00361317 -1.62546 0.228502 -6.1748e-010 1.75941e-009 -8.75398e-010 -1.06404e-009 3.02582e-009 -1.51075e-009 -6.17483e-010 1.75941e-009 -8.75397e-010 -7.73091 5.47488 -0.417314 -6.17487e-010 1.75943e-009 -8.75408e-010 -2.90554 0.965183 -0.102902 -6.17484e-010 1.75941e-009 -8.75398e-010 -10.2786 0.731801 -0.0259123 -6.17472e-010 1.75941e-009 -8.75402e-010 -2.22167 -0.733487 0.20892 -2.03217e-016 0 -3.88251e-019 -7.49483 -57.9068 -13.8664 34.2145 89.755 -31.3121 -5.57424 -19.7315 -10.8465 2.03217e-016 0 3.88251e-019 6.88855 6.23137 -8.94026 0.878012 69.2111 -2.28584 8.94124 -3.07857 -30.7002 
